<svg width="66" height="55" xmlns="http://www.w3.org/2000/svg" xmlns:xlink="http://www.w3.org/1999/xlink" overflow="hidden"><defs><clipPath id="clip0"><path d="M279 141 345 141 345 196 279 196Z" fill-rule="evenodd" clip-rule="evenodd"/></clipPath><linearGradient x1="322.5" y1="183.5" x2="322.5" y2="195.5" gradientUnits="userSpaceOnUse" spreadMethod="reflect" id="fill1"><stop offset="0" stop-color="#B5D5A7"/><stop offset="0.5" stop-color="#AACE99"/><stop offset="1" stop-color="#9CCA86"/></linearGradient><linearGradient x1="283.5" y1="164" x2="344.5" y2="164" gradientUnits="userSpaceOnUse" spreadMethod="reflect" id="fill2"><stop offset="0" stop-color="#FFDD9C"/><stop offset="0.24" stop-color="#FFD78E"/><stop offset="0.9" stop-color="#FFF2CC"/><stop offset="1" stop-color="#FFF2CC"/></linearGradient></defs><g clip-path="url(#clip0)" transform="translate(-279 -141)"><path d="M304.5 185.5C304.5 184.395 305.396 183.5 306.5 183.5L338.5 183.5C339.605 183.5 340.5 184.395 340.5 185.5L340.5 193.5C340.5 194.605 339.605 195.5 338.5 195.5L306.5 195.5C305.396 195.5 304.5 194.605 304.5 193.5Z" stroke="#70AD47" stroke-miterlimit="8" fill="url(#fill1)" fill-rule="evenodd"/><path d="M0 0 14.5075 0 14.5075 6.16487" stroke="#A5A5A5" stroke-width="2" stroke-miterlimit="8" fill="none" fill-rule="evenodd" transform="matrix(-4.37114e-08 1 1 4.37114e-08 298 174)"/><path d="M283.5 153.667C283.5 150.813 285.813 148.5 288.667 148.5L339.333 148.5C342.187 148.5 344.5 150.813 344.5 153.667L344.5 174.333C344.5 177.187 342.187 179.5 339.333 179.5L288.667 179.5C285.813 179.5 283.5 177.187 283.5 174.333Z" stroke="#FFC000" stroke-miterlimit="8" fill="url(#fill2)" fill-rule="evenodd"/><text fill="#3B3838" font-family="Calibri,Calibri_MSFontService,sans-serif" font-weight="400" font-size="24" transform="translate(294.001 171)">C.<tspan fill="#2E75B6" font-family="Bradley Hand ITC,Bradley Hand ITC_MSFontService,sans-serif" font-size="15" x="18.8333" y="0">Lib</tspan></text></g></svg>